<?xml version="1.0" standalone="no"?>
<!DOCTYPE svg PUBLIC "-//W3C//DTD SVG 20010904//EN"
 "http://www.w3.org/TR/2001/REC-SVG-20010904/DTD/svg10.dtd">
<svg version="1.0" xmlns="http://www.w3.org/2000/svg"
 width="1280.000000pt" height="853.000000pt" viewBox="0 0 1280.000000 853.000000"
 preserveAspectRatio="xMidYMid meet">
<metadata>
Created by potrace 1.15, written by Peter Selinger 2001-2017
</metadata>
<g transform="translate(0.000000,853.000000) scale(0.100000,-0.100000)"
fill="#000000" stroke="none">
<path d="M4710 5600 c-246 -23 -470 -61 -610 -105 -25 -7 -72 -19 -105 -25
-33 -6 -98 -20 -145 -31 -185 -44 -417 -100 -455 -110 -22 -6 -101 -24 -175
-39 -298 -62 -483 -109 -595 -153 -28 -11 -23 -12 55 -17 48 -3 122 0 170 8
47 7 113 15 148 19 34 3 62 10 62 14 0 5 18 9 41 9 27 0 39 -4 37 -12 -4 -12
0 -11 -363 -123 -137 -43 -259 -81 -270 -85 -11 -4 -96 -33 -190 -63 -93 -31
-192 -66 -219 -78 -74 -32 -42 -43 118 -37 131 5 169 12 377 70 104 29 159 33
166 12 2 -5 -23 -21 -54 -34 -201 -82 -749 -345 -847 -407 l-48 -30 28 -6 c65
-13 345 47 459 98 17 8 95 43 175 79 138 62 171 69 157 33 -3 -9 -43 -36 -89
-62 -46 -25 -112 -64 -147 -85 -34 -22 -65 -40 -68 -40 -3 0 -83 -52 -179
-117 -192 -128 -305 -222 -267 -223 12 0 25 5 28 10 3 6 23 10 43 10 20 0 50
7 66 15 15 8 32 13 37 10 4 -3 16 -2 26 3 10 5 50 19 88 32 66 21 268 125 420
215 100 60 175 96 186 89 18 -11 8 -33 -23 -56 -214 -151 -558 -464 -558 -508
0 -16 42 -2 157 52 57 26 110 48 118 48 8 0 54 24 103 53 118 71 159 86 261
98 87 10 247 57 291 87 18 12 49 17 110 17 84 2 137 9 195 25 17 5 81 12 143
14 63 3 141 13 173 22 51 14 66 15 99 4 41 -14 148 -8 196 10 34 13 77 13 91
-1 6 -6 38 -13 72 -16 54 -5 70 -2 136 27 62 27 80 31 99 22 13 -5 50 -13 82
-17 37 -4 73 -16 95 -32 22 -14 56 -26 85 -29 26 -2 66 -13 89 -24 23 -11 49
-20 58 -20 9 0 46 -12 81 -26 63 -26 65 -26 105 -10 58 22 71 21 137 -19 51
-31 63 -34 108 -29 42 5 62 1 110 -21 37 -16 68 -24 83 -20 13 3 32 1 41 -4
10 -5 37 -12 60 -15 22 -3 50 -10 61 -16 11 -6 32 -8 46 -4 20 5 35 -2 70 -31
39 -31 54 -37 103 -40 32 -1 99 -17 152 -35 80 -28 101 -40 133 -77 24 -26 47
-43 61 -43 49 0 56 -18 59 -130 2 -103 -20 -235 -69 -405 -7 -27 -25 -95 -38
-150 -25 -99 -50 -181 -66 -220 -5 -11 -16 -42 -24 -70 -40 -140 -132 -362
-238 -578 -43 -87 -78 -169 -78 -183 l0 -24 58 22 c81 30 131 68 187 141 15
21 51 50 79 64 28 14 60 33 71 43 11 9 32 20 46 24 15 3 29 15 32 26 3 12 13
20 26 20 15 0 21 6 21 21 0 19 4 21 35 16 19 -3 35 -2 35 3 0 5 9 11 19 15 11
3 42 28 69 56 41 41 55 49 83 48 52 -2 109 11 164 39 45 23 57 24 137 18 53
-3 89 -2 93 4 8 13 132 13 140 0 3 -5 36 -28 74 -50 55 -33 76 -40 118 -40 29
0 55 5 58 10 9 15 45 12 51 -5 3 -8 25 -24 49 -35 24 -12 59 -40 78 -63 31
-38 58 -55 155 -100 12 -6 44 -11 70 -11 41 -1 47 2 50 22 2 13 -8 37 -26 60
-114 145 -383 652 -477 897 -13 33 -37 96 -55 140 -17 44 -44 116 -60 160 -15
44 -35 97 -44 117 -9 21 -16 49 -16 64 0 26 0 27 53 18 28 -4 68 -8 87 -7 69
1 290 31 302 41 7 5 38 13 68 17 30 4 74 18 97 31 45 26 73 30 90 13 8 -8 22
-5 52 11 33 16 52 20 85 15 29 -5 52 -2 67 6 13 7 30 12 38 10 8 -1 38 5 66
14 31 9 71 14 101 11 50 -4 125 15 155 41 22 18 38 16 78 -8 30 -18 40 -20 72
-10 21 6 49 25 63 41 25 30 25 30 108 25 46 -3 97 -8 114 -10 26 -5 41 2 83
35 35 28 60 40 82 40 18 0 47 5 65 12 29 10 39 8 105 -26 69 -36 77 -38 136
-31 35 4 63 11 63 16 0 5 10 14 23 20 18 8 37 6 86 -11 35 -11 106 -25 159
-29 67 -6 123 -19 180 -40 87 -32 149 -39 180 -20 15 9 40 6 119 -15 55 -14
123 -26 152 -26 35 0 67 -8 101 -25 27 -14 60 -25 74 -25 13 0 26 -7 30 -15 8
-22 26 -18 26 6 0 14 5 19 18 17 12 -3 16 -12 14 -30 -2 -25 2 -29 50 -42 85
-25 102 -24 106 2 5 32 28 27 81 -18 35 -28 54 -37 69 -33 17 4 22 1 22 -15 0
-26 120 -114 260 -191 116 -63 140 -74 140 -63 0 35 -333 380 -521 539 -45 39
-68 65 -68 81 -1 12 4 22 10 22 13 0 225 -127 263 -158 17 -13 39 -28 50 -33
12 -5 64 -36 116 -68 59 -37 99 -56 105 -50 15 14 25 11 25 -10 0 -20 103 -71
145 -71 13 0 27 -4 30 -10 15 -24 35 -9 35 25 0 48 17 44 40 -9 21 -46 41 -56
116 -56 63 0 70 -5 -256 210 -129 86 -308 203 -397 260 -89 58 -162 111 -163
118 0 25 48 10 229 -74 102 -47 227 -99 276 -115 106 -35 263 -69 320 -69 l40
0 -30 25 c-16 14 -241 131 -500 260 -258 130 -478 241 -487 247 -24 17 -23 38
2 38 11 0 68 -18 128 -39 166 -62 268 -92 286 -85 9 3 22 1 29 -5 24 -19 169
-41 267 -40 l95 1 -70 33 c-38 18 -171 68 -295 110 -740 252 -837 291 -807
321 3 4 75 -10 159 -31 125 -31 176 -39 278 -42 90 -3 121 -1 110 6 -30 22
-242 82 -508 146 -150 35 -350 89 -445 120 -94 31 -266 81 -382 111 -115 30
-250 65 -300 79 -175 50 -201 56 -340 80 -261 47 -295 49 -383 27 -44 -11
-126 -41 -183 -67 -344 -154 -652 -257 -894 -301 -208 -37 -328 -7 -545 135
-92 61 -151 81 -233 81 -49 0 -129 -20 -173 -43 -40 -20 -81 -75 -86 -113 l-3
-29 -65 3 c-104 4 -284 59 -570 175 -186 76 -265 111 -460 205 -246 118 -287
127 -460 112z"/>
</g>
</svg>
