<svg width="87" height="96" viewBox="0 0 87 96" fill="none" xmlns="http://www.w3.org/2000/svg">
<path d="M39.7487 5.26397C39.3993 4.93634 39.0498 4.69607 38.7222 4.52134C38.3945 4.36844 38.0232 4.28107 37.6082 4.28107C37.1277 4.28107 36.7782 4.39028 36.5379 4.58686C36.2977 4.78344 36.1666 5.11108 36.1666 5.54792C36.1666 5.85371 36.2977 6.13766 36.5598 6.33424C36.8219 6.55266 37.1277 6.74924 37.5208 6.94582C37.914 7.1424 38.329 7.33898 38.7658 7.5574C39.2027 7.77582 39.6177 8.01609 40.0108 8.32188C40.404 8.62767 40.7098 8.97715 40.9719 9.41399C41.234 9.85083 41.3651 10.375 41.3651 10.9866C41.3651 11.9258 41.103 12.734 40.6006 13.4111C40.0982 14.0882 39.3119 14.5251 38.3072 14.7653V16.8185H36.4069V14.8527C35.839 14.7872 35.2274 14.6343 34.594 14.3722C33.9606 14.1101 33.4145 13.7824 32.9558 13.3674L34.2227 11.4235C34.725 11.7948 35.2056 12.0787 35.6424 12.2753C36.1011 12.4719 36.5598 12.5593 37.0185 12.5593C37.5645 12.5593 37.9795 12.4501 38.2198 12.2316C38.4819 12.0132 38.6129 11.6637 38.6129 11.2051C38.6129 10.8556 38.4819 10.5716 38.2198 10.3314C37.9577 10.0911 37.6519 9.87268 37.2587 9.65425C36.8656 9.43583 36.4506 9.21741 36.0137 8.99899C35.5769 8.78057 35.1619 8.51846 34.7687 8.21267C34.3756 7.90688 34.0698 7.5574 33.8077 7.1424C33.5455 6.7274 33.4145 6.24687 33.4145 5.65713C33.4145 4.69607 33.6766 3.88791 34.2008 3.25449C34.725 2.62106 35.4677 2.20606 36.385 2.03132V0H38.2853V1.98764C38.9187 2.07501 39.4648 2.27159 39.9453 2.55554C40.4258 2.83949 40.8408 3.18896 41.234 3.60396L39.7487 5.26397Z" fill="#333B41"/>
<path fill-rule="evenodd" clip-rule="evenodd" d="M86.7749 76.0006L83.1812 73.7891L75.1644 88.164L79.0346 90.0991L86.7749 76.0006Z" fill="#333B41"/>
<path fill-rule="evenodd" clip-rule="evenodd" d="M81.2457 73.2355C71.8467 62.4543 63.5535 65.2187 52.4959 72.4062C42.8205 78.7643 35.633 74.3413 28.4455 77.3821C26.7869 78.2114 24.2989 80.1465 26.5104 82.0816C27.6162 82.9109 32.0393 83.7403 33.4215 83.4638C40.8854 81.8052 43.0969 85.1225 54.431 82.9109C51.1137 85.3989 40.3325 83.7403 33.6979 84.5696C28.4455 85.6753 19.8759 81.5287 26.7869 76.8292C23.746 75.447 20.9816 74.6177 17.6643 74.3413C14.3471 71.8533 9.09468 68.8124 6.33027 67.7067C4.11874 66.3245 -1.41007 66.8774 2.18366 70.4711C5.77739 73.7884 15.4528 81.2523 17.3879 82.358C25.1282 87.0575 32.3157 90.3748 39.7796 94.5214C39.7796 94.5214 42.2676 95.9036 47.2435 93.9686C50.8372 92.3099 66.8708 83.4638 70.741 84.846C72.9525 85.6753 74.0583 86.2282 74.0583 86.2282L81.2457 73.2355Z" stroke="#333B41" stroke-width="1.5"/>
<path fill-rule="evenodd" clip-rule="evenodd" d="M34.5278 72.406C35.0807 71.3003 35.6336 70.471 36.4629 70.1945C37.2922 69.9181 37.5687 70.471 38.1216 71.0238C38.6744 71.8532 38.9509 72.1296 39.7802 72.6825C40.0566 72.9589 40.6095 72.9589 40.886 72.9589L40.3331 72.6825C39.5038 72.1296 38.9509 71.5767 39.2273 70.471C39.2273 70.1945 38.9509 69.6416 39.5038 69.6416C40.0566 69.9181 40.886 70.471 41.7153 70.471C41.7153 70.471 42.5446 70.7474 42.2682 70.471C42.2682 70.1945 41.7153 69.9181 41.4388 69.6416C39.7802 68.2594 39.7802 67.983 39.7802 66.0479C40.0566 63.2835 38.9509 61.072 37.0158 59.1369C32.5927 54.7138 34.5278 48.6321 37.8451 42.8269C40.886 37.5745 43.6504 36.7452 40.6095 30.387C39.5038 27.6226 37.5687 24.8582 37.2922 23.1996C37.2922 22.6467 37.2922 22.9231 37.2922 23.1996C37.0158 24.8582 38.1216 27.3462 39.2273 29.8342C41.7153 35.363 41.1624 35.9159 37.5687 40.8918C33.6985 45.8677 30.9341 51.1201 32.5927 56.6489C33.6985 60.5191 39.2273 64.3893 36.4629 66.8772C35.0807 67.983 33.1456 70.7474 32.8692 72.406C32.5927 73.2354 32.5927 73.2354 32.3163 73.7882C32.0399 74.0647 32.3163 74.0647 32.5927 74.0647C33.9749 73.7882 33.9749 73.2354 34.5278 72.406Z" fill="#333B41"/>
<mask id="path-5-inside-1_17137_3418" fill="white">
<path d="M40.8855 62.178C47.7965 62.178 53.3253 53.3319 53.0489 47.2502C45.3086 49.4617 40.8855 51.6732 40.0562 54.9905C39.5033 56.6492 39.7797 57.7549 41.1619 58.0314C41.9913 57.7549 44.2028 54.1612 48.3494 52.5026C44.7557 55.8198 44.2028 57.7549 41.1619 60.5193H40.8855C39.7797 59.9665 38.674 59.1371 38.3975 58.0314C37.8447 56.9256 37.8447 55.5434 38.1211 54.1612C39.2269 51.1203 42.2677 48.6324 47.5201 46.6973C50.2845 45.868 52.7725 44.7622 55.5369 44.7622C54.4311 50.8439 53.6018 55.8198 50.008 59.69C45.585 64.1131 41.1619 62.178 40.8855 62.178Z"/>
</mask>
<path d="M40.8855 62.178C47.7965 62.178 53.3253 53.3319 53.0489 47.2502C45.3086 49.4617 40.8855 51.6732 40.0562 54.9905C39.5033 56.6492 39.7797 57.7549 41.1619 58.0314C41.9913 57.7549 44.2028 54.1612 48.3494 52.5026C44.7557 55.8198 44.2028 57.7549 41.1619 60.5193H40.8855C39.7797 59.9665 38.674 59.1371 38.3975 58.0314C37.8447 56.9256 37.8447 55.5434 38.1211 54.1612C39.2269 51.1203 42.2677 48.6324 47.5201 46.6973C50.2845 45.868 52.7725 44.7622 55.5369 44.7622C54.4311 50.8439 53.6018 55.8198 50.008 59.69C45.585 64.1131 41.1619 62.178 40.8855 62.178Z" stroke="#333B41" stroke-width="3" mask="url(#path-5-inside-1_17137_3418)"/>
<mask id="path-6-inside-2_17137_3418" fill="white">
<path d="M33.6982 41.168C27.6165 41.4445 22.917 33.7041 23.1934 28.4518C29.828 30.3868 33.6982 32.3219 34.5275 35.0863C35.0804 36.4685 34.5275 37.5743 33.4217 37.8507C32.5924 37.5743 30.6573 34.5335 27.0636 33.1513C30.3809 35.9157 30.9337 37.5743 33.4217 40.0623L33.6982 39.7858C34.8039 39.5094 35.6332 38.9565 35.9097 37.8507C36.4626 36.745 36.4626 35.6392 35.9097 34.5335C35.0804 31.7691 32.5924 29.5575 27.8929 28.1753C25.4049 27.346 23.4698 26.5167 20.9819 26.2402C22.0876 31.4926 22.6405 35.9157 25.9578 39.233C29.5515 43.1031 33.4217 41.4445 33.6982 41.168Z"/>
</mask>
<path d="M33.6982 41.168C27.6165 41.4445 22.917 33.7041 23.1934 28.4518C29.828 30.3868 33.6982 32.3219 34.5275 35.0863C35.0804 36.4685 34.5275 37.5743 33.4217 37.8507C32.5924 37.5743 30.6573 34.5335 27.0636 33.1513C30.3809 35.9157 30.9337 37.5743 33.4217 40.0623L33.6982 39.7858C34.8039 39.5094 35.6332 38.9565 35.9097 37.8507C36.4626 36.745 36.4626 35.6392 35.9097 34.5335C35.0804 31.7691 32.5924 29.5575 27.8929 28.1753C25.4049 27.346 23.4698 26.5167 20.9819 26.2402C22.0876 31.4926 22.6405 35.9157 25.9578 39.233C29.5515 43.1031 33.4217 41.4445 33.6982 41.168Z" stroke="#333B41" stroke-width="3" mask="url(#path-6-inside-2_17137_3418)"/>
<mask id="path-7-inside-3_17137_3418" fill="white">
<path d="M43.9258 31.4932C48.9018 31.4932 53.0484 25.1351 53.0484 20.4356C46.9667 22.0942 43.9258 23.7529 43.0965 26.2408C42.8201 27.3466 43.0965 28.1759 43.9258 28.4524C44.7552 28.4524 46.4138 25.6879 49.4547 24.3057C46.6902 26.7937 46.1374 28.1759 43.9258 30.3874C42.8201 30.111 42.2672 29.2817 41.9908 28.4524C41.4379 27.623 41.4379 26.5173 41.7143 25.6879C42.5436 23.2 44.7552 21.5413 48.6253 20.1591C50.8369 19.3298 52.7719 18.7769 54.707 18.5005C53.8777 22.9235 53.3248 26.7937 50.5604 29.8346C47.2431 33.1519 43.9258 31.4932 43.9258 31.4932Z"/>
</mask>
<path d="M43.9258 31.4932C48.9018 31.4932 53.0484 25.1351 53.0484 20.4356C46.9667 22.0942 43.9258 23.7529 43.0965 26.2408C42.8201 27.3466 43.0965 28.1759 43.9258 28.4524C44.7552 28.4524 46.4138 25.6879 49.4547 24.3057C46.6902 26.7937 46.1374 28.1759 43.9258 30.3874C42.8201 30.111 42.2672 29.2817 41.9908 28.4524C41.4379 27.623 41.4379 26.5173 41.7143 25.6879C42.5436 23.2 44.7552 21.5413 48.6253 20.1591C50.8369 19.3298 52.7719 18.7769 54.707 18.5005C53.8777 22.9235 53.3248 26.7937 50.5604 29.8346C47.2431 33.1519 43.9258 31.4932 43.9258 31.4932Z" stroke="#333B41" stroke-width="3" mask="url(#path-7-inside-3_17137_3418)"/>
</svg>
